<?xml version="1.0" encoding="utf-8"?>
<!-- Generator: Adobe Illustrator 15.0.0, SVG Export Plug-In . SVG Version: 6.00 Build 0)  -->
<!DOCTYPE svg PUBLIC "-//W3C//DTD SVG 1.1//EN" "http://www.w3.org/Graphics/SVG/1.1/DTD/svg11.dtd">
<svg version="1.1" id="Layer_1" xmlns="http://www.w3.org/2000/svg" xmlns:xlink="http://www.w3.org/1999/xlink" x="0px" y="0px"
	 width="375px" height="85px" viewBox="0 0 375 85" enable-background="new 0 0 375 85" xml:space="preserve">
<g>
	<path fill="#FFFFFF" d="M366.922,25.522c-0.385,0-0.738,0.078-1.057,0.235s-0.602,0.37-0.85,0.642
		c-0.246,0.271-0.447,0.596-0.605,0.976c-0.156,0.379-0.252,0.786-0.289,1.219h5.529v-0.199c-0.012-0.434-0.09-0.828-0.234-1.184
		c-0.145-0.355-0.342-0.656-0.588-0.903c-0.246-0.247-0.535-0.439-0.867-0.578C367.629,25.591,367.283,25.522,366.922,25.522z
		 M366.85,22.469c0.771,0,1.527,0.132,2.268,0.397s1.406,0.684,1.996,1.256c0.59,0.572,1.066,1.304,1.428,2.195
		s0.541,1.963,0.541,3.216c0,0.217-0.012,0.467-0.035,0.75c-0.023,0.283-0.049,0.521-0.072,0.714h-8.906
		c0.035,0.602,0.156,1.138,0.361,1.608c0.203,0.47,0.469,0.861,0.795,1.174c0.324,0.313,0.697,0.551,1.119,0.714
		c0.422,0.162,0.861,0.244,1.318,0.244c0.506,0,1.021-0.099,1.545-0.298c0.523-0.198,1.016-0.509,1.473-0.93l1.844,2.367
		c-0.844,0.674-1.721,1.162-2.629,1.463c-0.91,0.301-1.811,0.452-2.701,0.452c-0.928,0-1.801-0.178-2.619-0.533
		c-0.82-0.355-1.537-0.87-2.15-1.544c-0.615-0.674-1.102-1.502-1.463-2.484c-0.361-0.982-0.543-2.099-0.543-3.352
		c0-1.144,0.168-2.174,0.506-3.089s0.799-1.692,1.383-2.331s1.264-1.129,2.041-1.473C365.125,22.641,365.959,22.469,366.85,22.469z
		 M354.402,26.606c-0.338-0.385-0.711-0.663-1.121-0.831c-0.408-0.168-0.807-0.253-1.191-0.253c-0.422,0-0.822,0.103-1.201,0.307
		c-0.381,0.205-0.715,0.503-1.004,0.895c-0.289,0.391-0.52,0.876-0.695,1.454c-0.174,0.578-0.262,1.234-0.262,1.969
		s0.078,1.385,0.234,1.951c0.158,0.566,0.371,1.045,0.643,1.436c0.27,0.392,0.586,0.69,0.947,0.895s0.754,0.307,1.176,0.307
		c0.229,0,0.463-0.036,0.703-0.108c0.242-0.072,0.471-0.178,0.688-0.316c0.217-0.139,0.418-0.301,0.605-0.488
		c0.186-0.187,0.346-0.394,0.479-0.623V26.606z M357.889,17.537V37.5h-2.385l-0.434-1.536c-0.975,1.216-2.246,1.825-3.813,1.825
		c-0.746,0-1.473-0.163-2.176-0.488c-0.705-0.325-1.328-0.804-1.871-1.436c-0.541-0.633-0.975-1.413-1.301-2.34
		c-0.324-0.927-0.486-2-0.486-3.216c0-1.301,0.17-2.439,0.514-3.415s0.811-1.792,1.4-2.448c0.59-0.657,1.273-1.15,2.051-1.481
		c0.777-0.332,1.6-0.497,2.467-0.497c0.986,0,1.836,0.235,2.547,0.705v-5.637H357.889z M339.498,30.617
		c-0.17-0.036-0.354-0.063-0.553-0.082c-0.197-0.018-0.369-0.027-0.514-0.027c-0.639,0-1.193,0.066-1.662,0.199
		c-0.471,0.132-0.861,0.307-1.174,0.524c-0.314,0.217-0.549,0.473-0.705,0.768c-0.156,0.295-0.234,0.605-0.234,0.93
		c0,0.241,0.047,0.47,0.145,0.687c0.096,0.217,0.229,0.41,0.396,0.578s0.373,0.301,0.615,0.397c0.24,0.096,0.506,0.145,0.795,0.145
		c0.275,0,0.557-0.045,0.84-0.135c0.283-0.091,0.553-0.217,0.813-0.38c0.26-0.162,0.494-0.358,0.705-0.587s0.389-0.482,0.533-0.759
		V30.617z M342.984,37.5h-2.367l-0.469-1.807c-0.482,0.59-1.07,1.087-1.762,1.49c-0.693,0.404-1.484,0.605-2.377,0.605
		c-0.709,0-1.363-0.117-1.959-0.353c-0.598-0.234-1.109-0.554-1.537-0.957c-0.426-0.404-0.762-0.876-1.002-1.418
		s-0.361-1.12-0.361-1.734c0-0.807,0.172-1.533,0.516-2.177c0.342-0.644,0.813-1.189,1.408-1.635s1.295-0.786,2.096-1.021
		c0.801-0.235,1.666-0.353,2.594-0.353c0.252,0,0.539,0.009,0.857,0.027c0.318,0.018,0.611,0.045,0.877,0.081v-0.253
		c0-0.434-0.078-0.804-0.236-1.111c-0.156-0.307-0.367-0.563-0.631-0.768c-0.266-0.205-0.576-0.355-0.932-0.452
		s-0.736-0.145-1.146-0.145c-0.639,0-1.227,0.082-1.762,0.244c-0.535,0.163-1.045,0.376-1.527,0.642l-1.336-2.331
		c0.723-0.506,1.529-0.897,2.42-1.174c0.893-0.277,1.789-0.416,2.693-0.416c0.807,0,1.568,0.118,2.285,0.352
		c0.717,0.235,1.346,0.597,1.887,1.084c0.543,0.488,0.973,1.105,1.293,1.852c0.318,0.747,0.479,1.632,0.479,2.656V37.5z
		 M325.135,26.57c-0.289-0.337-0.639-0.599-1.049-0.786c-0.408-0.187-0.842-0.28-1.301-0.28c-0.42,0-0.822,0.105-1.201,0.316
		c-0.379,0.21-0.711,0.515-0.994,0.912c-0.281,0.397-0.508,0.882-0.676,1.454c-0.17,0.572-0.254,1.22-0.254,1.942
		c0,0.747,0.082,1.409,0.244,1.987s0.383,1.063,0.66,1.454c0.275,0.392,0.598,0.687,0.965,0.886
		c0.369,0.198,0.756,0.298,1.166,0.298c0.434,0,0.871-0.114,1.311-0.343s0.816-0.572,1.129-1.03V26.57z M328.621,36.886
		c0,1.084-0.162,2.054-0.488,2.909c-0.324,0.855-0.779,1.584-1.363,2.186c-0.584,0.602-1.283,1.063-2.096,1.382
		s-1.707,0.479-2.684,0.479c-0.986,0-1.936-0.169-2.846-0.506c-0.908-0.338-1.76-0.832-2.555-1.482l1.787-2.439
		c0.578,0.506,1.156,0.861,1.734,1.066s1.205,0.307,1.879,0.307c0.375,0,0.75-0.069,1.129-0.208
		c0.381-0.138,0.717-0.346,1.012-0.623c0.297-0.277,0.537-0.614,0.723-1.012c0.188-0.397,0.281-0.861,0.281-1.391v-1.03
		c-0.41,0.421-0.879,0.738-1.41,0.948c-0.529,0.211-1.084,0.316-1.662,0.316c-0.77,0-1.512-0.166-2.221-0.497
		c-0.711-0.331-1.34-0.822-1.889-1.472s-0.984-1.455-1.311-2.412c-0.324-0.958-0.486-2.063-0.486-3.315
		c0-1.216,0.174-2.297,0.523-3.243c0.35-0.945,0.807-1.743,1.373-2.394s1.217-1.144,1.951-1.481s1.494-0.506,2.275-0.506
		c0.676,0,1.295,0.114,1.861,0.343s0.994,0.482,1.283,0.759l0.107-0.813h3.09V36.886z M313.391,17.627v3.415h-3.232v-3.415H313.391z
		 M313.518,22.758V37.5h-3.486V22.758H313.518z M301.992,22.758l0.107,1.066c0.543-0.458,1.084-0.798,1.627-1.021
		c0.541-0.223,1.084-0.334,1.625-0.334c0.639,0,1.229,0.145,1.771,0.434c0.541,0.289,1.006,0.705,1.391,1.247l-1.734,2.132
		c-0.277-0.253-0.584-0.443-0.922-0.569c-0.338-0.127-0.686-0.19-1.047-0.19c-0.422,0-0.842,0.082-1.256,0.244
		c-0.416,0.163-0.805,0.419-1.166,0.768V37.5h-3.486V22.758H301.992z M286.111,25.522h3.451c0.264-0.06,0.525-0.163,0.785-0.307
		s0.484-0.322,0.678-0.533c0.193-0.21,0.35-0.455,0.469-0.731c0.121-0.277,0.182-0.572,0.182-0.885c0-0.699-0.283-1.259-0.85-1.68
		s-1.434-0.632-2.602-0.632h-2.113V25.522z M286.111,34.284h2.42c1.326,0,2.316-0.271,2.973-0.813s0.984-1.229,0.984-2.06
		c0-1.831-1.414-2.746-4.246-2.746h-2.131V34.284z M288.207,17.537c1.229,0,2.295,0.118,3.197,0.352
		c0.904,0.235,1.652,0.575,2.25,1.021c0.596,0.446,1.041,0.981,1.336,1.608s0.443,1.331,0.443,2.114
		c0,0.843-0.195,1.614-0.588,2.313c-0.391,0.699-0.918,1.295-1.58,1.789c1.012,0.578,1.756,1.289,2.23,2.132
		c0.477,0.843,0.715,1.747,0.715,2.71c0,0.747-0.15,1.476-0.453,2.186c-0.301,0.71-0.736,1.343-1.309,1.897s-1.271,1-2.096,1.337
		c-0.826,0.337-1.762,0.506-2.811,0.506h-7.135V17.537H288.207z M271.477,30.617c-0.168-0.036-0.352-0.063-0.551-0.082
		c-0.199-0.018-0.369-0.027-0.514-0.027c-0.639,0-1.193,0.066-1.662,0.199c-0.471,0.132-0.861,0.307-1.176,0.524
		c-0.313,0.217-0.547,0.473-0.703,0.768c-0.158,0.295-0.236,0.605-0.236,0.93c0,0.241,0.049,0.47,0.145,0.687
		c0.098,0.217,0.23,0.41,0.398,0.578s0.373,0.301,0.613,0.397c0.242,0.096,0.506,0.145,0.795,0.145c0.277,0,0.559-0.045,0.84-0.135
		c0.283-0.091,0.555-0.217,0.814-0.38c0.258-0.162,0.494-0.358,0.703-0.587c0.211-0.229,0.389-0.482,0.533-0.759V30.617z
		 M274.965,37.5h-2.367l-0.471-1.807c-0.48,0.59-1.068,1.087-1.762,1.49c-0.691,0.404-1.484,0.605-2.375,0.605
		c-0.711,0-1.363-0.117-1.961-0.353c-0.596-0.234-1.107-0.554-1.535-0.957c-0.428-0.404-0.762-0.876-1.002-1.418
		s-0.361-1.12-0.361-1.734c0-0.807,0.172-1.533,0.514-2.177c0.344-0.644,0.814-1.189,1.41-1.635s1.295-0.786,2.096-1.021
		c0.801-0.235,1.666-0.353,2.592-0.353c0.254,0,0.539,0.009,0.859,0.027c0.318,0.018,0.611,0.045,0.875,0.081v-0.253
		c0-0.434-0.078-0.804-0.234-1.111c-0.156-0.307-0.367-0.563-0.633-0.768c-0.264-0.205-0.574-0.355-0.93-0.452
		s-0.738-0.145-1.146-0.145c-0.639,0-1.227,0.082-1.762,0.244c-0.537,0.163-1.045,0.376-1.527,0.642l-1.336-2.331
		c0.723-0.506,1.529-0.897,2.42-1.174s1.789-0.416,2.691-0.416c0.809,0,1.57,0.118,2.285,0.352c0.717,0.235,1.348,0.597,1.889,1.084
		c0.543,0.488,0.973,1.105,1.291,1.852c0.32,0.747,0.48,1.632,0.48,2.656V37.5z M251.947,17.537v6.052
		c0.457-0.301,0.996-0.563,1.617-0.786c0.621-0.223,1.311-0.334,2.068-0.334c0.746,0,1.43,0.132,2.051,0.397s1.152,0.638,1.6,1.12
		c0.445,0.482,0.791,1.063,1.037,1.743c0.248,0.681,0.371,1.431,0.371,2.25V37.5h-3.486v-8.907c0-0.421-0.049-0.819-0.145-1.192
		s-0.244-0.702-0.443-0.985c-0.199-0.283-0.451-0.506-0.758-0.668c-0.309-0.163-0.678-0.244-1.111-0.244
		c-0.482,0-0.955,0.103-1.418,0.307c-0.465,0.205-0.926,0.494-1.383,0.867V37.5h-3.486V17.537H251.947z M242.951,22.758h3.902v0.181
		l-5.385,5.962l5.564,8.419V37.5h-3.848l-4.156-6.215l-0.758,0.939V37.5h-3.486V17.537h3.486v10.37L242.951,22.758z M226.854,22.758
		l0.107,1.066c0.543-0.458,1.084-0.798,1.627-1.021c0.541-0.223,1.084-0.334,1.625-0.334c0.639,0,1.229,0.145,1.771,0.434
		c0.541,0.289,1.006,0.705,1.391,1.247l-1.734,2.132c-0.277-0.253-0.584-0.443-0.922-0.569c-0.336-0.127-0.686-0.19-1.047-0.19
		c-0.422,0-0.84,0.082-1.256,0.244c-0.416,0.163-0.805,0.419-1.166,0.768V37.5h-3.486V22.758H226.854z M212.094,22.758v9.033
		c0,0.506,0.059,0.945,0.18,1.319s0.279,0.681,0.479,0.921s0.432,0.418,0.695,0.533c0.266,0.114,0.549,0.171,0.85,0.171
		c0.229,0,0.471-0.033,0.723-0.099c0.254-0.066,0.5-0.166,0.74-0.298c0.242-0.132,0.471-0.298,0.688-0.497
		c0.217-0.199,0.41-0.431,0.578-0.696V22.758h3.486V37.5h-2.348l-0.416-1.608c-0.615,0.638-1.313,1.114-2.096,1.427
		s-1.549,0.47-2.295,0.47c-0.627,0-1.225-0.111-1.797-0.334c-0.572-0.223-1.078-0.561-1.518-1.012
		c-0.439-0.452-0.789-1.018-1.049-1.698c-0.258-0.681-0.389-1.473-0.389-2.376v-9.611H212.094z M205.426,34.917
		c-0.998,0.963-2.068,1.686-3.207,2.168c-1.137,0.482-2.309,0.723-3.514,0.723c-1.143,0-2.227-0.217-3.252-0.65
		c-1.023-0.434-1.918-1.084-2.682-1.951c-0.766-0.867-1.373-1.948-1.826-3.243c-0.451-1.295-0.676-2.804-0.676-4.526
		c0-1.578,0.201-2.996,0.604-4.254c0.404-1.259,0.959-2.325,1.662-3.198c0.705-0.873,1.533-1.544,2.484-2.014
		c0.953-0.47,1.982-0.705,3.09-0.705c0.844,0,1.641,0.129,2.395,0.389c0.752,0.259,1.441,0.644,2.068,1.156
		c0.627,0.512,1.18,1.156,1.662,1.933c0.482,0.777,0.879,1.689,1.191,2.737l-3.432,0.958c-0.326-1.192-0.805-2.126-1.438-2.8
		c-0.631-0.674-1.447-1.012-2.447-1.012c-0.627,0-1.191,0.181-1.697,0.542s-0.938,0.849-1.293,1.463s-0.629,1.331-0.822,2.15
		c-0.191,0.819-0.289,1.686-0.289,2.602c0,1.144,0.131,2.153,0.389,3.026c0.26,0.873,0.609,1.611,1.049,2.213
		s0.961,1.057,1.563,1.364c0.602,0.307,1.246,0.46,1.934,0.46c0.578,0,1.113-0.093,1.607-0.28c0.494-0.187,0.928-0.449,1.301-0.786
		v-3.288h-2.945v-3.234h6.521V34.917z M178.001,25.522c-0.385,0-0.738,0.078-1.057,0.235c-0.319,0.157-0.603,0.37-0.85,0.642
		c-0.247,0.271-0.448,0.596-0.605,0.976c-0.157,0.379-0.253,0.786-0.289,1.219h5.528v-0.199c-0.012-0.434-0.09-0.828-0.235-1.184
		c-0.145-0.355-0.34-0.656-0.587-0.903c-0.247-0.247-0.536-0.439-0.867-0.578C178.709,25.591,178.363,25.522,178.001,25.522z
		 M177.929,22.469c0.771,0,1.526,0.132,2.268,0.397c0.74,0.265,1.406,0.684,1.996,1.256c0.59,0.572,1.066,1.304,1.427,2.195
		s0.542,1.963,0.542,3.216c0,0.217-0.012,0.467-0.036,0.75c-0.024,0.283-0.048,0.521-0.072,0.714h-8.907
		c0.036,0.602,0.157,1.138,0.361,1.608s0.47,0.861,0.795,1.174s0.699,0.551,1.12,0.714c0.421,0.162,0.861,0.244,1.319,0.244
		c0.506,0,1.021-0.099,1.544-0.298c0.524-0.198,1.015-0.509,1.473-0.93l1.843,2.367c-0.843,0.674-1.719,1.162-2.629,1.463
		c-0.909,0.301-1.81,0.452-2.701,0.452c-0.927,0-1.801-0.178-2.62-0.533c-0.819-0.355-1.536-0.87-2.15-1.544
		s-1.102-1.502-1.463-2.484c-0.361-0.982-0.542-2.099-0.542-3.352c0-1.144,0.168-2.174,0.506-3.089s0.798-1.692,1.382-2.331
		c0.584-0.638,1.265-1.129,2.042-1.473C176.204,22.641,177.038,22.469,177.929,22.469z M160.314,17.537v6.052
		c0.458-0.301,0.997-0.563,1.617-0.786c0.621-0.223,1.31-0.334,2.069-0.334c0.747,0,1.43,0.132,2.05,0.397
		c0.621,0.265,1.153,0.638,1.599,1.12s0.792,1.063,1.039,1.743c0.247,0.681,0.371,1.431,0.371,2.25V37.5h-3.487v-8.907
		c0-0.421-0.048-0.819-0.145-1.192s-0.244-0.702-0.442-0.985c-0.199-0.283-0.452-0.506-0.759-0.668
		c-0.308-0.163-0.678-0.244-1.111-0.244c-0.482,0-0.955,0.103-1.418,0.307c-0.464,0.205-0.925,0.494-1.382,0.867V37.5h-3.487V17.537
		H160.314z M154.822,17.537v3.234h-5.42V37.5h-3.686V20.771h-5.42v-3.234H154.822z"/>
	<path fill="#FFFFFF" d="M265.805,51.758h3.09l0.107,1.066c0.602-0.446,1.25-0.783,1.941-1.012c0.693-0.229,1.365-0.344,2.016-0.344
		c0.662,0,1.295,0.117,1.896,0.353c0.602,0.234,1.135,0.587,1.6,1.057c0.463,0.47,0.83,1.048,1.102,1.734s0.406,1.481,0.406,2.385
		V66.5h-3.486v-8.906c0-0.482-0.061-0.916-0.182-1.301c-0.119-0.386-0.289-0.711-0.506-0.977c-0.217-0.265-0.469-0.467-0.758-0.604
		c-0.289-0.139-0.602-0.208-0.939-0.208c-0.482,0-0.979,0.111-1.49,0.334s-0.949,0.51-1.311,0.858V66.5h-3.486V51.758z
		 M256.717,51.469c0.963,0,1.85,0.175,2.656,0.523c0.807,0.35,1.5,0.855,2.078,1.518c0.578,0.663,1.025,1.47,1.346,2.422
		c0.318,0.951,0.479,2.029,0.479,3.233c0,1.229-0.154,2.315-0.461,3.261s-0.746,1.74-1.318,2.385s-1.262,1.135-2.068,1.473
		c-0.809,0.338-1.711,0.506-2.711,0.506s-1.902-0.168-2.709-0.506c-0.809-0.338-1.494-0.828-2.061-1.473s-1.006-1.439-1.318-2.385
		s-0.471-2.032-0.471-3.261c0-1.204,0.164-2.282,0.488-3.233c0.326-0.952,0.777-1.759,1.355-2.422
		c0.578-0.662,1.268-1.168,2.068-1.518C254.871,51.644,255.754,51.469,256.717,51.469z M256.717,54.521
		c-0.434,0-0.836,0.104-1.211,0.308c-0.373,0.204-0.695,0.503-0.967,0.895c-0.27,0.392-0.484,0.873-0.641,1.445
		c-0.156,0.571-0.234,1.231-0.234,1.978c0,1.542,0.273,2.692,0.822,3.451c0.547,0.759,1.291,1.139,2.23,1.139
		c0.951,0,1.699-0.38,2.24-1.139c0.543-0.759,0.813-1.909,0.813-3.451c0-0.746-0.078-1.406-0.234-1.978
		c-0.156-0.572-0.371-1.054-0.641-1.445c-0.271-0.392-0.594-0.69-0.967-0.895S257.15,54.521,256.717,54.521z M247.395,46.627v3.414
		h-3.234v-3.414H247.395z M247.521,51.758V66.5h-3.486V51.758H247.521z M237.332,48.397v3.36h3.596v3.053h-3.541v6.848
		c0,0.687,0.139,1.205,0.414,1.554c0.277,0.349,0.67,0.524,1.176,0.524c0.229,0,0.475-0.052,0.74-0.154
		c0.266-0.102,0.535-0.262,0.813-0.479l1.318,2.313c-0.578,0.457-1.203,0.801-1.879,1.029c-0.674,0.229-1.336,0.344-1.986,0.344
		c-0.543,0-1.061-0.088-1.555-0.262c-0.492-0.175-0.926-0.439-1.301-0.795c-0.373-0.355-0.67-0.801-0.895-1.337
		c-0.223-0.536-0.334-1.171-0.334-1.906v-7.679h-1.986v-3.053h2.041v-2.439L237.332,48.397z M226.221,59.617
		c-0.168-0.037-0.352-0.063-0.551-0.082c-0.199-0.018-0.371-0.027-0.516-0.027c-0.637,0-1.191,0.066-1.662,0.199
		c-0.469,0.133-0.861,0.307-1.174,0.523s-0.547,0.473-0.705,0.769c-0.156,0.295-0.234,0.604-0.234,0.931
		c0,0.24,0.049,0.469,0.145,0.686s0.229,0.41,0.398,0.578c0.168,0.169,0.373,0.302,0.613,0.398c0.24,0.096,0.506,0.145,0.795,0.145
		c0.277,0,0.557-0.046,0.84-0.136c0.283-0.091,0.555-0.217,0.813-0.38c0.26-0.162,0.494-0.357,0.705-0.587s0.389-0.481,0.533-0.759
		V59.617z M229.707,66.5h-2.365l-0.471-1.807c-0.482,0.59-1.068,1.087-1.762,1.49c-0.691,0.404-1.484,0.605-2.375,0.605
		c-0.711,0-1.365-0.117-1.961-0.353c-0.596-0.234-1.107-0.554-1.535-0.957s-0.762-0.876-1.002-1.419
		c-0.242-0.541-0.361-1.119-0.361-1.734c0-0.807,0.17-1.532,0.514-2.177c0.344-0.644,0.813-1.188,1.41-1.635
		c0.596-0.446,1.295-0.786,2.096-1.021c0.801-0.235,1.664-0.353,2.592-0.353c0.254,0,0.539,0.009,0.857,0.027
		c0.32,0.018,0.611,0.045,0.877,0.081v-0.253c0-0.434-0.078-0.804-0.234-1.111c-0.156-0.307-0.367-0.563-0.633-0.768
		s-0.574-0.355-0.93-0.452c-0.355-0.096-0.738-0.145-1.148-0.145c-0.637,0-1.225,0.082-1.762,0.244
		c-0.535,0.163-1.043,0.377-1.525,0.642l-1.338-2.331c0.723-0.506,1.531-0.896,2.422-1.174s1.789-0.416,2.691-0.416
		c0.807,0,1.568,0.118,2.285,0.353c0.717,0.235,1.346,0.597,1.889,1.084c0.541,0.488,0.973,1.105,1.291,1.853
		c0.32,0.746,0.479,1.631,0.479,2.655V66.5z M215.109,46.627v3.414h-3.232v-3.414H215.109z M215.236,51.758V66.5h-3.486V51.758
		H215.236z M206.547,57.232c-0.254-0.977-0.621-1.675-1.102-2.096c-0.482-0.422-1.037-0.633-1.662-0.633
		c-0.482,0-0.914,0.121-1.293,0.361s-0.701,0.569-0.967,0.984c-0.264,0.416-0.467,0.897-0.605,1.445
		c-0.137,0.549-0.207,1.135-0.207,1.762c0,0.723,0.09,1.37,0.271,1.942c0.18,0.571,0.43,1.063,0.75,1.472
		c0.318,0.41,0.689,0.723,1.111,0.939c0.42,0.217,0.873,0.326,1.354,0.326c0.482,0,0.982-0.118,1.5-0.353
		c0.518-0.235,1.029-0.611,1.535-1.13l1.861,2.367c-0.758,0.711-1.578,1.25-2.457,1.617s-1.818,0.551-2.818,0.551
		c-0.891,0-1.734-0.172-2.529-0.515c-0.795-0.344-1.496-0.847-2.105-1.509c-0.607-0.662-1.09-1.484-1.445-2.466
		c-0.354-0.981-0.531-2.117-0.531-3.405c0-1.193,0.178-2.25,0.531-3.171c0.355-0.922,0.828-1.698,1.42-2.331
		c0.59-0.632,1.273-1.111,2.049-1.436c0.777-0.326,1.588-0.488,2.432-0.488c0.674,0,1.318,0.1,1.932,0.298
		c0.615,0.199,1.178,0.5,1.689,0.903c0.512,0.404,0.967,0.91,1.365,1.518c0.396,0.608,0.717,1.316,0.957,2.123L206.547,57.232z
		 M188.842,51.469c0.963,0,1.848,0.175,2.656,0.523c0.807,0.35,1.498,0.855,2.076,1.518c0.578,0.663,1.027,1.47,1.346,2.422
		c0.32,0.951,0.48,2.029,0.48,3.233c0,1.229-0.154,2.315-0.461,3.261c-0.309,0.945-0.748,1.74-1.32,2.385
		c-0.57,0.645-1.26,1.135-2.068,1.473c-0.807,0.338-1.709,0.506-2.709,0.506s-1.903-0.168-2.71-0.506s-1.494-0.828-2.06-1.473
		s-1.006-1.439-1.319-2.385s-0.47-2.032-0.47-3.261c0-1.204,0.163-2.282,0.488-3.233c0.325-0.952,0.777-1.759,1.355-2.422
		c0.578-0.662,1.268-1.168,2.069-1.518C186.996,51.644,187.878,51.469,188.842,51.469z M188.842,54.521
		c-0.434,0-0.838,0.104-1.211,0.308c-0.374,0.204-0.696,0.503-0.966,0.895c-0.271,0.392-0.485,0.873-0.642,1.445
		c-0.157,0.571-0.235,1.231-0.235,1.978c0,1.542,0.274,2.692,0.822,3.451c0.548,0.759,1.292,1.139,2.232,1.139
		c0.951,0,1.697-0.38,2.24-1.139c0.541-0.759,0.813-1.909,0.813-3.451c0-0.746-0.078-1.406-0.234-1.978
		c-0.156-0.572-0.371-1.054-0.643-1.445c-0.27-0.392-0.592-0.69-0.965-0.895C189.678,54.625,189.275,54.521,188.842,54.521z
		 M171.534,62.489c0.506,0.374,1.042,0.687,1.608,0.939s1.138,0.38,1.716,0.38c0.65,0,1.159-0.133,1.526-0.398
		c0.368-0.265,0.551-0.59,0.551-0.975c0-0.313-0.096-0.584-0.289-0.813s-0.446-0.431-0.759-0.605s-0.671-0.34-1.075-0.497
		c-0.404-0.156-0.813-0.324-1.229-0.506c-0.416-0.18-0.825-0.385-1.229-0.613c-0.404-0.229-0.762-0.504-1.075-0.822
		c-0.313-0.319-0.566-0.699-0.759-1.139s-0.289-0.961-0.289-1.563c0-0.734,0.145-1.376,0.434-1.924
		c0.289-0.549,0.681-1.006,1.174-1.373s1.06-0.645,1.698-0.831s1.313-0.28,2.023-0.28c0.867,0,1.701,0.127,2.502,0.379
		c0.801,0.254,1.496,0.621,2.086,1.103l-1.337,2.511c-0.421-0.276-0.897-0.515-1.427-0.713c-0.53-0.199-1.072-0.299-1.626-0.299
		c-0.59,0-1.072,0.111-1.445,0.335c-0.374,0.223-0.56,0.551-0.56,0.984c0,0.325,0.166,0.608,0.497,0.849
		c0.332,0.241,0.744,0.477,1.238,0.705s1.03,0.47,1.608,0.723s1.114,0.563,1.608,0.931c0.494,0.367,0.906,0.81,1.238,1.327
		c0.331,0.519,0.497,1.145,0.497,1.879c0,0.76-0.154,1.425-0.46,1.997c-0.308,0.571-0.714,1.054-1.22,1.445
		s-1.081,0.683-1.726,0.876c-0.644,0.193-1.304,0.289-1.978,0.289c-1,0-1.927-0.172-2.782-0.515
		c-0.855-0.344-1.62-0.816-2.294-1.419L171.534,62.489z M159.375,62.489c0.506,0.374,1.042,0.687,1.608,0.939s1.138,0.38,1.716,0.38
		c0.65,0,1.159-0.133,1.527-0.398c0.367-0.265,0.551-0.59,0.551-0.975c0-0.313-0.096-0.584-0.289-0.813s-0.446-0.431-0.759-0.605
		s-0.671-0.34-1.075-0.497c-0.403-0.156-0.813-0.324-1.229-0.506c-0.415-0.18-0.825-0.385-1.229-0.613
		c-0.403-0.229-0.762-0.504-1.075-0.822c-0.313-0.319-0.566-0.699-0.759-1.139s-0.289-0.961-0.289-1.563
		c0-0.734,0.145-1.376,0.434-1.924c0.289-0.549,0.681-1.006,1.174-1.373s1.06-0.645,1.698-0.831s1.313-0.28,2.023-0.28
		c0.867,0,1.701,0.127,2.502,0.379c0.801,0.254,1.497,0.621,2.087,1.103l-1.337,2.511c-0.421-0.276-0.897-0.515-1.427-0.713
		c-0.53-0.199-1.072-0.299-1.626-0.299c-0.59,0-1.072,0.111-1.445,0.335c-0.374,0.223-0.56,0.551-0.56,0.984
		c0,0.325,0.166,0.608,0.497,0.849c0.331,0.241,0.744,0.477,1.237,0.705s1.03,0.47,1.608,0.723s1.114,0.563,1.608,0.931
		c0.494,0.367,0.906,0.81,1.237,1.327c0.332,0.519,0.497,1.145,0.497,1.879c0,0.76-0.153,1.425-0.461,1.997
		c-0.307,0.571-0.713,1.054-1.219,1.445s-1.081,0.683-1.725,0.876c-0.645,0.193-1.304,0.289-1.979,0.289
		c-1,0-1.927-0.172-2.782-0.515c-0.855-0.344-1.62-0.816-2.294-1.419L159.375,62.489z M146.223,57.883h4.517l-2.258-7.679
		L146.223,57.883z M150.667,46.537l6.197,19.963h-3.758l-1.68-5.402h-5.872l-1.68,5.402h-3.758l6.179-19.963H150.667z"/>
</g>
<g enable-background="new    ">
	<g>
		<defs>
			<rect id="SVGID_1_" x="1.917" y="1.25" width="123" height="82.5"/>
		</defs>
		<clipPath id="SVGID_2_">
			<use xlink:href="#SVGID_1_"  overflow="visible"/>
		</clipPath>
		<path clip-path="url(#SVGID_2_)" fill="#FFFFFF" d="M77.863,50.858c0,0-0.734,1.597,0.453,2.186
			c3.143,1.561,11.413,15.902,11.413,15.902c2.669,5.742,2.521,14.431,3.261,14.282c10.674-2.12,13.787-11.484,13.787-11.484
			s-4.24-1.867-7.264-7.805c-6.301-12.368-7.025-10.188-12.526-18.773c-0.519-0.81-1.557-0.368-1.557-0.368"/>
		<path clip-path="url(#SVGID_2_)" fill="#044525" d="M92.972,83.687c-0.116,0-0.23-0.037-0.328-0.107
			c-0.382-0.274-0.484-0.974-0.778-3.361c-0.373-3.024-0.937-7.59-2.544-11.063c-2.291-3.97-8.738-14.476-11.211-15.704
			c-1.252-0.621-0.982-2.092-0.666-2.783l0.836,0.379l-0.418-0.189l0.418,0.188c-0.021,0.049-0.533,1.206,0.24,1.59
			c1.378,0.685,3.755,3.61,7.066,8.696c2.438,3.748,4.52,7.352,4.541,7.387l0.018,0.036c1.676,3.604,2.25,8.267,2.631,11.353
			c0.133,1.069,0.268,2.17,0.396,2.618c8.886-1.896,12.326-9.059,13.027-10.761c-1.145-0.621-4.535-2.789-7.097-7.819
			c-3.819-7.498-5.571-9.609-7.599-12.054c-1.286-1.551-2.744-3.309-4.905-6.682c-0.296-0.461-0.921-0.221-0.991-0.192l-0.359-0.839
			c0.484-0.205,1.549-0.356,2.125,0.542c2.131,3.326,3.508,4.985,4.84,6.591c2.063,2.486,3.844,4.634,7.709,12.223
			c2.905,5.703,6.999,7.574,7.04,7.593l0.378,0.168l-0.129,0.392c-0.031,0.096-3.32,9.641-14.131,11.789
			C93.044,83.683,93.008,83.687,92.972,83.687"/>
		<path clip-path="url(#SVGID_2_)" fill="#FFFFFF" d="M73.398,46.477l-0.084-1.884l1.18-1.285l-3.2-0.03l-3.804-5.385
			c-8.459-7.58-20.007-5.364-32.459-6.936C9.62,27.751,2.567,1.95,2.567,1.95s24.311,6.184,42.247,8.246
			C56.655,11.556,67.197,22.27,85.43,44.798l-7.567,6.06l-1.571-1.767l0.533-3.299l-1.722,0.913L73.398,46.477z"/>
		<path clip-path="url(#SVGID_2_)" fill="#044525" d="M76.779,48.95l1.137,1.278l6.869-5.5
			c-17.844-22.024-28.42-32.747-40.023-34.081C28.811,8.815,7.586,3.666,3.246,2.589c0.625,1.895,2.546,7.063,6.416,12.421
			c4.453,6.166,12.478,13.86,25.427,15.493c3.393,0.428,6.726,0.574,9.949,0.715c8.483,0.371,16.496,0.721,22.761,6.334l0.067,0.077
			l3.668,5.193l3.991,0.038l-1.743,1.899l0.058,1.314l1.178,0.158l2.408-1.277L76.779,48.95z M77.809,51.486l-2.006-2.255
			l0.422-2.604l-1.037,0.55l-2.232-0.3l-0.108-2.452l0.617-0.671l-2.412-0.023l-3.908-5.534c-6.012-5.36-13.491-5.688-22.147-6.066
			c-3.242-0.142-6.594-0.288-10.024-0.721c-13.291-1.677-21.516-9.568-26.076-15.893C3.966,8.678,2.142,2.134,2.124,2.069
			L1.917,1.313l0.764,0.194c0.243,0.062,24.486,6.2,42.186,8.234c11.983,1.377,22.744,12.309,40.921,34.77l0.287,0.355
			L77.809,51.486z"/>
		<path clip-path="url(#SVGID_2_)" fill="#FFFFFF" d="M94.177,54.885c0,0-1.482,4.344-8.301,7.877"/>
		<path clip-path="url(#SVGID_2_)" fill="#044525" d="M86.087,63.166l-0.424-0.809c6.579-3.41,8.064-7.578,8.078-7.619l0.87,0.293
			C94.548,55.216,92.992,59.589,86.087,63.166"/>
		<path clip-path="url(#SVGID_2_)" fill="#FFFFFF" d="M82.762,46.712c0,0-21.643-27.682-34.835-30.627"/>
		<path clip-path="url(#SVGID_2_)" fill="#044525" d="M82.4,46.991c-4.806-6.13-9.954-12.038-15.482-17.544
			c-4.171-4.092-8.547-8.08-13.603-11.073c-1.693-0.972-3.478-1.823-5.388-2.289c1.919,0.429,3.727,1.248,5.445,2.189
			c3.428,1.918,6.542,4.346,9.514,6.894c4.455,3.841,8.584,8.038,12.557,12.366c2.641,2.896,5.21,5.846,7.682,8.897L82.4,46.991z"/>
		<path clip-path="url(#SVGID_2_)" fill="#FFFFFF" d="M93.102,53.375c0,0-1.482,4.344-8.302,7.878"/>
		<path clip-path="url(#SVGID_2_)" fill="#044525" d="M85.013,61.657l-0.425-0.809c6.579-3.41,8.064-7.578,8.078-7.62l0.87,0.293
			C93.474,53.706,91.916,58.08,85.013,61.657"/>
		<path clip-path="url(#SVGID_2_)" fill="#FFFFFF" d="M100.281,65.248c0,0-1.895,4.183-9.023,7.05"/>
		<path clip-path="url(#SVGID_2_)" fill="#044525" d="M91.429,72.721l-0.345-0.846c6.879-2.768,8.759-6.775,8.777-6.814l0.838,0.374
			C100.619,65.612,98.646,69.817,91.429,72.721"/>
		<path clip-path="url(#SVGID_2_)" fill="#FFFFFF" d="M87.777,46.463c0,0-0.687,4.535-6.77,9.209"/>
		<path clip-path="url(#SVGID_2_)" fill="#044525" d="M81.288,56.032l-0.562-0.722c5.869-4.51,6.59-8.873,6.598-8.916l0.908,0.135
			C88.203,46.723,87.446,51.301,81.288,56.032"/>
		<path clip-path="url(#SVGID_2_)" fill="#FFFFFF" d="M99.357,63.643c0,0-1.896,4.183-9.023,7.051"/>
		<path clip-path="url(#SVGID_2_)" fill="#044525" d="M90.505,71.116l-0.345-0.845c6.845-2.754,8.759-6.776,8.777-6.816l0.837,0.375
			C99.695,64.008,97.721,68.214,90.505,71.116"/>
		<path clip-path="url(#SVGID_2_)" fill="#FFFFFF" d="M104.255,76.407c0,0,0.891,2.847-1.186,4.54
			c-2.074,1.693-4.743,0.515-4.743,0.515"/>
		<path clip-path="url(#SVGID_2_)" fill="#044525" d="M100.398,82.32c-1.232,0-2.189-0.412-2.258-0.441l0.373-0.834
			c0.023,0.01,2.441,1.038,4.266-0.451c1.807-1.473,1.07-3.948,1.039-4.053l0.877-0.27c0.039,0.128,0.955,3.16-1.333,5.027
			C102.392,82.09,101.318,82.32,100.398,82.32"/>
		<path clip-path="url(#SVGID_2_)" fill="#FFFFFF" d="M78.76,53.485c0,0,4.596-1.178,8.228-8.319"/>
		<path clip-path="url(#SVGID_2_)" fill="#044525" d="M78.875,53.927l-0.23-0.883c0.043-0.012,4.453-1.241,7.933-8.083l0.819,0.41
			C83.713,52.614,79.07,53.877,78.875,53.927"/>
		<path clip-path="url(#SVGID_2_)" fill="#FFFFFF" d="M48.973,50.858c0,0,0.733,1.597-0.453,2.186
			c-3.143,1.561-11.414,15.902-11.414,15.902c-2.668,5.742-2.52,14.431-3.261,14.282c-10.674-2.12-13.786-11.484-13.786-11.484
			s4.24-1.867,7.263-7.805c6.3-12.368,7.025-10.188,12.526-18.773c0.519-0.81,1.557-0.368,1.557-0.368"/>
		<path clip-path="url(#SVGID_2_)" fill="#044525" d="M33.864,83.687c-0.036,0-0.073-0.004-0.109-0.011
			c-10.811-2.148-14.1-11.693-14.132-11.789l-0.13-0.393l0.38-0.168c0.04-0.018,4.134-1.889,7.04-7.593
			c3.865-7.588,5.646-9.735,7.708-12.222c1.332-1.605,2.708-3.265,4.839-6.591c0.576-0.899,1.642-0.748,2.125-0.542l-0.361,0.838
			c-0.068-0.027-0.694-0.268-0.989,0.193c-2.161,3.373-3.619,5.131-4.905,6.682c-2.027,2.444-3.779,4.556-7.598,12.054
			c-2.562,5.03-5.953,7.199-7.097,7.819c0.701,1.702,4.142,8.865,13.028,10.761c0.128-0.448,0.264-1.549,0.396-2.618
			c0.38-3.086,0.956-7.748,2.63-11.353l0.019-0.036c0.34-0.59,8.377-14.479,11.607-16.083c0.781-0.388,0.246-1.577,0.24-1.589
			l0.835-0.379c0.317,0.691,0.586,2.162-0.665,2.783c-2.473,1.229-8.92,11.734-11.211,15.704c-1.608,3.473-2.171,8.038-2.544,11.063
			c-0.294,2.388-0.396,3.087-0.778,3.361C34.094,83.649,33.98,83.687,33.864,83.687"/>
		<path clip-path="url(#SVGID_2_)" fill="#FFFFFF" d="M53.438,46.477l0.083-1.884l-1.18-1.285l3.201-0.03l3.803-5.385
			c8.459-7.58,20.007-5.364,32.459-6.936c25.411-3.206,32.463-29.007,32.463-29.007s-24.311,6.184-42.246,8.246
			C70.18,11.556,59.637,22.27,41.404,44.798l7.568,6.06l1.571-1.767l-0.534-3.299l1.723,0.913L53.438,46.477z"/>
		<path clip-path="url(#SVGID_2_)" fill="#044525" d="M42.05,44.729l6.869,5.501l1.138-1.278l-0.646-3.995l2.408,1.277l1.177-0.158
			l0.058-1.314l-1.743-1.899l3.991-0.038l3.736-5.27c6.264-5.613,14.276-5.963,22.761-6.334c3.223-0.141,6.556-0.287,9.948-0.715
			c12.95-1.633,20.976-9.327,25.427-15.493c3.869-5.358,5.79-10.526,6.416-12.421c-4.34,1.076-25.564,6.225-41.516,8.059
			C70.47,11.982,59.895,22.704,42.05,44.729 M49.026,51.486l-8.266-6.619l0.287-0.355C51.475,31.628,58.067,24.3,63.804,19.218
			c6.629-5.872,12.23-8.794,18.164-9.476c17.699-2.034,41.943-8.173,42.186-8.234l0.764-0.194l-0.206,0.756
			c-0.019,0.065-1.843,6.608-6.772,13.447c-4.561,6.325-12.785,14.216-26.076,15.893c-3.431,0.433-6.783,0.579-10.025,0.721
			c-8.655,0.378-16.135,0.706-22.146,6.066l-3.909,5.534l-2.411,0.023l0.616,0.671l-0.108,2.452l-2.232,0.3l-1.037-0.55l0.422,2.604
			L49.026,51.486z"/>
		<path clip-path="url(#SVGID_2_)" fill="#044525" d="M40.747,63.166c-6.903-3.578-8.461-7.951-8.523-8.136l0.869-0.294
			c0.015,0.041,1.531,4.227,8.079,7.621L40.747,63.166z"/>
		<path clip-path="url(#SVGID_2_)" fill="#044525" d="M41.822,61.657c-6.903-3.577-8.461-7.951-8.524-8.136l0.869-0.294
			c0.015,0.042,1.532,4.228,8.079,7.621L41.822,61.657z"/>
		<path clip-path="url(#SVGID_2_)" fill="#044525" d="M35.406,72.721c-7.216-2.902-9.189-7.108-9.27-7.286l0.837-0.376
			c0.018,0.041,1.932,4.063,8.777,6.816L35.406,72.721z"/>
		<path clip-path="url(#SVGID_2_)" fill="#044525" d="M45.548,56.033c-6.159-4.732-6.915-9.311-6.944-9.503l0.908-0.136
			l-0.454,0.067l0.454-0.069c0.007,0.044,0.755,4.43,6.597,8.919L45.548,56.033z"/>
		<path clip-path="url(#SVGID_2_)" fill="#044525" d="M36.33,71.116c-7.216-2.902-9.189-7.108-9.27-7.286l0.837-0.374l-0.419,0.188
			l0.418-0.188c0.018,0.04,1.932,4.063,8.777,6.816L36.33,71.116z"/>
		<path clip-path="url(#SVGID_2_)" fill="#FFFFFF" d="M22.579,76.407c0,0-0.89,2.847,1.186,4.54s4.744,0.515,4.744,0.515"/>
		<path clip-path="url(#SVGID_2_)" fill="#044525" d="M26.438,82.32c-0.921,0-1.994-0.23-2.964-1.021
			c-2.288-1.867-1.373-4.899-1.333-5.027l0.877,0.271l-0.438-0.136l0.438,0.135c-0.032,0.104-0.768,2.58,1.038,4.053
			c1.825,1.488,4.243,0.461,4.267,0.45l0.372,0.835C28.626,81.908,27.669,82.32,26.438,82.32"/>
		<path clip-path="url(#SVGID_2_)" fill="#044525" d="M47.961,53.927c-0.196-0.05-4.839-1.313-8.522-8.556l0.819-0.41
			c3.498,6.877,7.888,8.071,7.933,8.083L47.961,53.927z"/>
		<path clip-path="url(#SVGID_2_)" fill="#044525" d="M43.711,46.432c7.519-9.126,23.804-27.653,35.198-30.347
			c-9.263,2.402-20.619,14.772-27.001,21.903c-2.572,2.934-5.082,5.934-7.471,9.003L43.711,46.432z"/>
	</g>
</g>
</svg>
